<svg width="37" height="34" viewBox="0 0 37 34" fill="none" xmlns="http://www.w3.org/2000/svg">
<path d="M31.9279 27.3677L26.6863 22.6137C28.3774 20.6538 29.2951 18.2335 29.2917 15.742C29.2917 13.5231 28.5683 11.354 27.2131 9.50903C25.8579 7.66406 23.9317 6.22609 21.6781 5.37695C19.4245 4.5278 16.9447 4.30563 14.5522 4.73852C12.1598 5.17141 9.9622 6.23992 8.23736 7.80893C6.51251 9.37794 5.33787 11.377 4.86199 13.5533C4.3861 15.7295 4.63034 17.9853 5.56382 20.0353C6.49731 22.0854 8.0781 23.8375 10.1063 25.0703C12.1345 26.3031 14.519 26.961 16.9583 26.961C19.6973 26.9641 22.358 26.1294 24.5125 24.591L29.7388 29.3591C29.8821 29.4906 30.0526 29.5949 30.2405 29.6661C30.4283 29.7373 30.6298 29.7739 30.8333 29.7739C31.0369 29.7739 31.2384 29.7373 31.4262 29.6661C31.6141 29.5949 31.7846 29.4906 31.9279 29.3591C32.0724 29.2287 32.1871 29.0736 32.2654 28.9027C32.3437 28.7319 32.3839 28.5486 32.3839 28.3634C32.3839 28.1783 32.3437 27.995 32.2654 27.8241C32.1871 27.6532 32.0724 27.4981 31.9279 27.3677ZM7.70834 15.742C7.70834 14.0778 8.25084 12.451 9.26725 11.0673C10.2836 9.68355 11.7283 8.60507 13.4185 7.96821C15.1087 7.33135 16.9686 7.16472 18.7629 7.48939C20.5573 7.81405 22.2054 8.61544 23.4991 9.7922C24.7927 10.969 25.6737 12.4682 26.0306 14.1004C26.3875 15.7327 26.2043 17.4245 25.5042 18.962C24.8041 20.4995 23.6185 21.8136 22.0974 22.7382C20.5762 23.6628 18.7878 24.1563 16.9583 24.1563C14.5051 24.1563 12.1523 23.2698 10.4176 21.6918C8.68289 20.1138 7.70834 17.9736 7.70834 15.742Z" fill="#5F5F5F"/>
</svg>
