<svg width="48" height="49" viewBox="0 0 48 49" fill="none" xmlns="http://www.w3.org/2000/svg">
<path d="M24 0C10.7419 0 0 10.8568 0 24.2567C0 37.6566 10.7419 48.5134 24 48.5134C37.2581 48.5134 48 37.6566 48 24.2567C48 10.8568 37.2581 0 24 0ZM24 9.38969C28.7032 9.38969 32.5161 13.2434 32.5161 17.9969C32.5161 22.7504 28.7032 26.6041 24 26.6041C19.2968 26.6041 15.4839 22.7504 15.4839 17.9969C15.4839 13.2434 19.2968 9.38969 24 9.38969ZM24 43.0361C18.3194 43.0361 13.229 40.4344 9.82258 36.3655C11.6419 32.903 15.2032 30.5165 19.3548 30.5165C19.5871 30.5165 19.8194 30.5556 20.0419 30.6241C21.3 31.0349 22.6161 31.299 24 31.299C25.3839 31.299 26.7097 31.0349 27.9581 30.6241C28.1806 30.5556 28.4129 30.5165 28.6452 30.5165C32.7968 30.5165 36.3581 32.903 38.1774 36.3655C34.771 40.4344 29.6806 43.0361 24 43.0361Z" fill="#5F5F5F"/>
</svg>
