<svg width="45" height="40" viewBox="0 0 45 40" fill="none" xmlns="http://www.w3.org/2000/svg">
<path d="M38.9 17.2205C38.9 8.81443 31.5575 2 22.5 2C13.4425 2 6.09998 8.81443 6.09998 17.2205" stroke="black" stroke-width="3" stroke-linecap="round" stroke-linejoin="round"/>
<path d="M2 25.6648V22.094C2 20.3479 3.28041 18.826 5.10561 18.4025L8.67169 17.5751C9.44801 17.3949 10.2 17.9398 10.2 18.6825V29.0762C10.2 29.819 9.44801 30.3639 8.67169 30.1837L5.10561 29.3563C3.28041 28.9328 2 27.4109 2 25.6648Z" stroke="black" stroke-width="3"/>
<path d="M43.0001 25.6648V22.094C43.0001 20.3479 41.7196 18.826 39.8945 18.4025L36.3283 17.5751C35.552 17.3949 34.8 17.9398 34.8 18.6825V29.0762C34.8 29.819 35.552 30.3639 36.3283 30.1837L39.8945 29.3563C41.7196 28.9328 43.0001 27.4109 43.0001 25.6648Z" stroke="black" stroke-width="3"/>
<path d="M38.9 30.5383V31.4896C38.9 33.5912 37.0644 35.2947 34.8 35.2947H27.625" stroke="black" stroke-width="3"/>
<path d="M25.575 38.1486H19.425C17.7267 38.1486 16.35 36.8708 16.35 35.2948C16.35 33.7187 17.7267 32.4409 19.425 32.4409H25.575C27.2732 32.4409 28.65 33.7187 28.65 35.2948C28.65 36.8708 27.2732 38.1486 25.575 38.1486Z" stroke="black" stroke-width="3"/>
</svg>
