<svg width="46" height="28" viewBox="0 0 46 28" fill="none" xmlns="http://www.w3.org/2000/svg">
<g id="&#240;&#159;&#166;&#134; icon &#34;van passenger&#34;">
<path id="Vector" d="M4.18182 0C1.86091 0 0 1.86091 0 4.18182V20.9091H4.18182C4.18182 22.5727 4.84269 24.1682 6.01906 25.3446C7.19542 26.5209 8.79091 27.1818 10.4545 27.1818C12.1182 27.1818 13.7137 26.5209 14.89 25.3446C16.0664 24.1682 16.7273 22.5727 16.7273 20.9091H29.2727C29.2727 22.5727 29.9336 24.1682 31.11 25.3446C32.2863 26.5209 33.8818 27.1818 35.5455 27.1818C37.2091 27.1818 38.8046 26.5209 39.9809 25.3446C41.1573 24.1682 41.8182 22.5727 41.8182 20.9091H46V12.5455C46 10.2245 44.1391 8.36364 41.8182 8.36364L35.5455 0H4.18182ZM4.18182 3.13636H12.5455V8.36364H4.18182V3.13636ZM16.7273 3.13636H25.0909V8.36364H16.7273V3.13636ZM29.2727 3.13636H34.5L38.5982 8.36364H29.2727V3.13636ZM10.4545 17.7727C11.2864 17.7727 12.0841 18.1032 12.6723 18.6913C13.2605 19.2795 13.5909 20.0773 13.5909 20.9091C13.5909 21.7409 13.2605 22.5387 12.6723 23.1268C12.0841 23.715 11.2864 24.0455 10.4545 24.0455C9.62273 24.0455 8.82498 23.715 8.2368 23.1268C7.64862 22.5387 7.31818 21.7409 7.31818 20.9091C7.31818 20.0773 7.64862 19.2795 8.2368 18.6913C8.82498 18.1032 9.62273 17.7727 10.4545 17.7727ZM35.5455 17.7727C36.3773 17.7727 37.175 18.1032 37.7632 18.6913C38.3514 19.2795 38.6818 20.0773 38.6818 20.9091C38.6818 21.7409 38.3514 22.5387 37.7632 23.1268C37.175 23.715 36.3773 24.0455 35.5455 24.0455C34.7136 24.0455 33.9159 23.715 33.3277 23.1268C32.7395 22.5387 32.4091 21.7409 32.4091 20.9091C32.4091 20.0773 32.7395 19.2795 33.3277 18.6913C33.9159 18.1032 34.7136 17.7727 35.5455 17.7727Z" fill="black"/>
</g>
</svg>
