<svg width="23" height="23" viewBox="0 0 23 23" fill="none" xmlns="http://www.w3.org/2000/svg">
<g id="&#240;&#159;&#166;&#134; icon &#34;arrow drop down circle&#34;">
<path id="Vector" d="M11.5 3.83341C15.7262 3.83341 19.1666 7.27383 19.1666 11.5001C19.1666 15.7263 15.7262 19.1667 11.5 19.1667C7.27371 19.1667 3.83329 15.7263 3.83329 11.5001C3.83329 7.27383 7.27371 3.83341 11.5 3.83341ZM11.5 1.91675C6.20996 1.91675 1.91663 6.21008 1.91663 11.5001C1.91663 16.7901 6.20996 21.0834 11.5 21.0834C16.79 21.0834 21.0833 16.7901 21.0833 11.5001C21.0833 6.21008 16.79 1.91675 11.5 1.91675ZM11.5 14.3751L7.66663 10.5417H15.3333L11.5 14.3751Z" fill="#5F5F5F"/>
</g>
</svg>
