<svg width="20" height="23" viewBox="0 0 20 23" fill="none" xmlns="http://www.w3.org/2000/svg">
<g id="&#240;&#159;&#166;&#134; icon &#34;User&#34;">
<path id="Vector" d="M9.81201 11.2137C12.9089 11.2137 15.4189 8.70378 15.4189 5.60686C15.4189 2.50995 12.9089 0 9.81201 0C6.71509 0 4.20515 2.50995 4.20515 5.60686C4.20515 8.70378 6.71509 11.2137 9.81201 11.2137ZM13.7368 12.6154H13.0053C12.0328 13.0622 10.9509 13.3163 9.81201 13.3163C8.67311 13.3163 7.59554 13.0622 6.61872 12.6154H5.8872C2.63698 12.6154 0 15.2524 0 18.5026V20.3249C0 21.4857 0.941777 22.4274 2.10257 22.4274H17.5214C18.6822 22.4274 19.624 21.4857 19.624 20.3249V18.5026C19.624 15.2524 16.987 12.6154 13.7368 12.6154Z" fill="#5F5F5F"/>
</g>
</svg>
