<svg width="35" height="35" viewBox="0 0 35 35" fill="none" xmlns="http://www.w3.org/2000/svg">
<g id="&#240;&#159;&#166;&#134; icon &#34;Gas Pump&#34;">
<path id="Vector" d="M22.9688 30.625H1.09375C0.492188 30.625 0 31.1172 0 31.7188V33.9062C0 34.5078 0.492188 35 1.09375 35H22.9688C23.5703 35 24.0625 34.5078 24.0625 33.9062V31.7188C24.0625 31.1172 23.5703 30.625 22.9688 30.625ZM33.7148 7.33496L28.1777 1.79785C27.7539 1.37402 27.0566 1.37402 26.6328 1.79785L25.8604 2.57031C25.4365 2.99414 25.4365 3.69141 25.8604 4.11523L28.4375 6.69238V10.9375C28.4375 12.8584 29.8662 14.4443 31.7188 14.7109V25.7031C31.7188 26.6055 30.9805 27.3438 30.0781 27.3438C29.1758 27.3438 28.4375 26.6055 28.4375 25.7031V23.5156C28.4375 20.1934 25.7441 17.5 22.4219 17.5H21.875V4.375C21.875 1.96191 19.9131 0 17.5 0H6.5625C4.14941 0 2.1875 1.96191 2.1875 4.375V28.4375H21.875V20.7812H22.4219C23.9326 20.7812 25.1562 22.0049 25.1562 23.5156V25.416C25.1562 27.9932 27.002 30.3379 29.5654 30.6045C32.5049 30.8984 35 28.5879 35 25.7031V10.4316C35 9.26953 34.5352 8.15527 33.7148 7.33496ZM17.5 13.125H6.5625V4.375H17.5V13.125Z" fill="black"/>
</g>
</svg>
