<svg width="29" height="30" viewBox="0 0 29 30" fill="none" xmlns="http://www.w3.org/2000/svg">
<g id="&#240;&#159;&#166;&#134; icon &#34;Identification&#34;">
<path id="Vector" d="M25.375 5.9375V24.0625H3.625V5.9375H25.375ZM25.375 4.125H3.625C3.1443 4.125 2.68328 4.31596 2.34337 4.65587C2.00346 4.99578 1.8125 5.4568 1.8125 5.9375V24.0625C1.8125 24.5432 2.00346 25.0042 2.34337 25.3441C2.68328 25.684 3.1443 25.875 3.625 25.875H25.375C25.8557 25.875 26.3167 25.684 26.6566 25.3441C26.9965 25.0042 27.1875 24.5432 27.1875 24.0625V5.9375C27.1875 5.4568 26.9965 4.99578 26.6566 4.65587C26.3167 4.31596 25.8557 4.125 25.375 4.125Z" fill="#5F5F5F"/>
<path id="Vector_2" d="M5.4375 9.5625H11.7813V11.375H5.4375V9.5625Z" fill="#5F5F5F"/>
<path id="Vector_3" d="M5.4375 13.1875H9.0625V15H5.4375V13.1875Z" fill="#5F5F5F"/>
<path id="Vector_4" d="M20.8438 16.8125H15.4062C14.6852 16.8125 13.9937 17.0989 13.4838 17.6088C12.9739 18.1187 12.6875 18.8102 12.6875 19.5312V21.3438H14.5V19.5312C14.5 19.2909 14.5955 19.0604 14.7654 18.8904C14.9354 18.7205 15.1659 18.625 15.4062 18.625H20.8438C21.0841 18.625 21.3146 18.7205 21.4846 18.8904C21.6545 19.0604 21.75 19.2909 21.75 19.5312V21.3438H23.5625V19.5312C23.5625 18.8102 23.2761 18.1187 22.7662 17.6088C22.2563 17.0989 21.5648 16.8125 20.8438 16.8125Z" fill="#5F5F5F"/>
<path id="Vector_5" d="M18.125 15.9063C18.842 15.9063 19.5428 15.6936 20.1389 15.2953C20.7351 14.897 21.1997 14.3309 21.4741 13.6685C21.7484 13.0061 21.8202 12.2772 21.6803 11.574C21.5405 10.8709 21.1952 10.225 20.6883 9.71799C20.1813 9.21102 19.5354 8.86578 18.8322 8.7259C18.129 8.58603 17.4002 8.65782 16.7378 8.93219C16.0754 9.20656 15.5092 9.67118 15.1109 10.2673C14.7126 10.8634 14.5 11.5643 14.5 12.2813C14.5 13.2427 14.8819 14.1647 15.5617 14.8445C16.2416 15.5243 17.1636 15.9063 18.125 15.9063ZM18.125 10.4688C18.4835 10.4688 18.8339 10.5751 19.132 10.7742C19.43 10.9734 19.6623 11.2564 19.7995 11.5876C19.9367 11.9188 19.9726 12.2833 19.9027 12.6349C19.8327 12.9864 19.6601 13.3094 19.4066 13.5629C19.1531 13.8164 18.8302 13.989 18.4786 14.0589C18.127 14.1289 17.7626 14.093 17.4314 13.9558C17.1002 13.8186 16.8171 13.5863 16.618 13.2882C16.4188 12.9902 16.3125 12.6397 16.3125 12.2813C16.3125 11.8005 16.5035 11.3395 16.8434 10.9996C17.1833 10.6597 17.6443 10.4688 18.125 10.4688Z" fill="#5F5F5F"/>
</g>
</svg>
