<svg width="23" height="21" viewBox="0 0 23 21" fill="none" xmlns="http://www.w3.org/2000/svg">
<g id="&#240;&#159;&#166;&#134; icon &#34;phone&#34;">
<path id="Vector" d="M14.0392 4.17268L13.7661 6.36914C13.7002 6.89663 13.891 7.41633 14.284 7.78962L15.9657 9.38695C14.6374 11.8308 12.5129 13.8308 9.90505 15.068L8.21422 13.462C7.82121 13.0887 7.27172 12.9052 6.71227 12.9639L4.40106 13.2072C3.47473 13.3079 2.77553 14.041 2.77262 14.9233L2.76768 16.42C2.76446 17.3975 3.62358 18.2135 4.65978 18.1564C12.4909 17.7237 18.7631 11.8358 19.2733 4.45813C19.3407 3.48078 18.4816 2.66475 17.4456 2.66134L15.8595 2.65611C14.9336 2.6444 14.1521 3.2993 14.0392 4.17268Z" fill="#5F5F5F"/>
</g>
</svg>
