<svg width="25" height="25" viewBox="0 0 25 25" fill="none" xmlns="http://www.w3.org/2000/svg">
<g id="&#240;&#159;&#166;&#134; icon &#34;email outline&#34;">
<path id="Vector" d="M19.7916 4.16675H5.20825C4.37945 4.16675 3.58459 4.49599 2.99854 5.08204C2.41249 5.66809 2.08325 6.46295 2.08325 7.29175V17.7084C2.08325 18.5372 2.41249 19.3321 2.99854 19.9181C3.58459 20.5042 4.37945 20.8334 5.20825 20.8334H19.7916C20.6204 20.8334 21.4152 20.5042 22.0013 19.9181C22.5873 19.3321 22.9166 18.5372 22.9166 17.7084V7.29175C22.9166 6.46295 22.5873 5.66809 22.0013 5.08204C21.4152 4.49599 20.6204 4.16675 19.7916 4.16675ZM19.0937 6.25008L12.4999 11.198L5.90617 6.25008H19.0937ZM19.7916 18.7501H5.20825C4.93198 18.7501 4.66703 18.6403 4.47168 18.445C4.27633 18.2496 4.16659 17.9847 4.16659 17.7084V7.55217L11.8749 13.3334C12.0552 13.4686 12.2745 13.5417 12.4999 13.5417C12.7253 13.5417 12.9446 13.4686 13.1249 13.3334L20.8333 7.55217V17.7084C20.8333 17.9847 20.7235 18.2496 20.5282 18.445C20.3328 18.6403 20.0679 18.7501 19.7916 18.7501Z" fill="#5F5F5F"/>
</g>
</svg>
