<svg width="40" height="40" viewBox="0 0 40 40" fill="none" xmlns="http://www.w3.org/2000/svg">
<g id="&#240;&#159;&#166;&#134; icon &#34;color palette outline&#34;">
<g id="Group">
<path id="Vector" d="M32.5668 8.46674C30.8957 6.80745 28.91 5.49865 26.7263 4.61715C24.5426 3.73564 22.2048 3.29919 19.8501 3.33341C15.4298 3.32236 11.1862 5.06771 8.05279 8.1855C4.91937 11.3033 3.15283 15.5381 3.14178 19.9584C3.13073 24.3787 4.87607 28.6223 7.99387 31.7557C11.1117 34.8891 15.3465 36.6557 19.7668 36.6667C20.7193 36.6829 21.6502 36.3824 22.4134 35.8123C23.1765 35.2421 23.7288 34.4347 23.9834 33.5167C24.1458 32.8538 24.1441 32.1613 23.9785 31.4992C23.813 30.8371 23.4886 30.2253 23.0334 29.7167C22.9282 29.597 22.8595 29.4495 22.8356 29.2919C22.8116 29.1342 22.8334 28.973 22.8983 28.8274C22.9632 28.6818 23.0686 28.5578 23.2018 28.4702C23.3351 28.3827 23.4907 28.3352 23.6501 28.3334H26.4001C28.9884 28.3455 31.4854 27.378 33.3897 25.6251C35.2941 23.8722 36.4648 21.4638 36.6668 18.8834C36.7288 16.9594 36.3971 15.0431 35.6921 13.2518C34.987 11.4606 33.9235 9.8323 32.5668 8.46674ZM26.4668 25.0001H23.7168C22.9137 24.9955 22.1265 25.2241 21.4507 25.6581C20.7749 26.0921 20.2396 26.7129 19.9097 27.4451C19.5797 28.1773 19.4693 28.9896 19.5919 29.7833C19.7144 30.577 20.0647 31.3181 20.6001 31.9167C20.7044 32.0219 20.7781 32.1535 20.8133 32.2974C20.8485 32.4412 20.844 32.5919 20.8001 32.7334C20.7168 33.0834 20.3334 33.3001 19.8168 33.3334C17.924 33.3091 16.058 32.8821 14.3431 32.0808C12.6281 31.2794 11.1035 30.122 9.87051 28.6857C8.63755 27.2494 7.72457 25.5669 7.19229 23.7504C6.66001 21.9338 6.52064 20.0247 6.78344 18.1501C7.25872 15 8.8327 12.1195 11.227 10.018C13.6213 7.91647 16.6816 6.72942 19.8668 6.66674H20.0001C21.8848 6.64207 23.7554 6.99509 25.5016 7.70498C27.2477 8.41488 28.8339 9.46727 30.1668 10.8001C31.2068 11.8407 32.0239 13.0823 32.5684 14.4491C33.1128 15.816 33.3731 17.2794 33.3334 18.7501C33.1609 20.4552 32.3644 22.0364 31.0969 23.19C29.8295 24.3436 28.1805 24.9882 26.4668 25.0001Z" fill="#231F20"/>
<path id="Vector_2" d="M20 13.3333C21.3807 13.3333 22.5 12.214 22.5 10.8333C22.5 9.45254 21.3807 8.33325 20 8.33325C18.6193 8.33325 17.5 9.45254 17.5 10.8333C17.5 12.214 18.6193 13.3333 20 13.3333Z" fill="#231F20"/>
<path id="Vector_3" d="M25.4169 12C24.9888 12.2473 24.6437 12.6159 24.4251 13.0593C24.2065 13.5027 24.1242 14.0009 24.1887 14.491C24.2532 14.9811 24.4616 15.4411 24.7875 15.8128C25.1133 16.1845 25.5421 16.4513 26.0195 16.5794C26.497 16.7075 27.0017 16.6912 27.4699 16.5325C27.938 16.3738 28.3487 16.0799 28.6498 15.6879C28.951 15.2959 29.1292 14.8234 29.1619 14.3301C29.1946 13.8369 29.0803 13.345 28.8335 12.9167C28.6695 12.632 28.451 12.3825 28.1905 12.1823C27.9299 11.9822 27.6325 11.8353 27.3152 11.7502C26.9979 11.6651 26.6669 11.6433 26.3412 11.6862C26.0154 11.729 25.7013 11.8357 25.4169 12Z" fill="#231F20"/>
<path id="Vector_4" d="M14.5834 12.0001C14.1551 11.7533 13.6632 11.639 13.17 11.6717C12.6767 11.7044 12.2042 11.8826 11.8122 12.1838C11.4202 12.485 11.1263 12.8956 10.9676 13.3637C10.8089 13.8319 10.7926 14.3366 10.9207 14.8141C11.0488 15.2915 11.3156 15.7203 11.6873 16.0462C12.059 16.372 12.519 16.5804 13.0091 16.6449C13.4992 16.7094 13.9975 16.6271 14.4408 16.4085C14.8842 16.19 15.2528 15.8448 15.5001 15.4168C15.6644 15.1323 15.7711 14.8182 15.814 14.4925C15.8568 14.1667 15.8351 13.8358 15.7499 13.5184C15.6648 13.2011 15.518 12.9037 15.3178 12.6432C15.1176 12.3826 14.8681 12.1641 14.5834 12.0001Z" fill="#231F20"/>
<path id="Vector_5" d="M10.2667 18.7666C9.85661 19.0435 9.53793 19.4358 9.35098 19.8939C9.16403 20.352 9.11722 20.8553 9.21646 21.34C9.3157 21.8247 9.55655 22.2691 9.90849 22.6169C10.2604 22.9646 10.7077 23.2001 11.1935 23.2936C11.6794 23.387 12.1821 23.3342 12.6379 23.1418C13.0937 22.9493 13.4822 22.626 13.7542 22.2127C14.0261 21.7993 14.1693 21.3146 14.1656 20.8198C14.1619 20.3251 14.0114 19.8425 13.7333 19.4333C13.5506 19.1606 13.3156 18.9267 13.042 18.7454C12.7684 18.564 12.4615 18.4387 12.1391 18.3767C11.8167 18.3147 11.4852 18.3173 11.1638 18.3842C10.8424 18.4511 10.5375 18.5811 10.2667 18.7666Z" fill="#231F20"/>
</g>
</g>
</svg>
