<svg width="23" height="23" viewBox="0 0 23 23" fill="none" xmlns="http://www.w3.org/2000/svg">
<g id="&#240;&#159;&#166;&#134; icon &#34;calendar&#34;">
<path id="Vector" d="M18.1385 1.10601C18.1385 0.812675 18.022 0.531358 17.8146 0.323941C17.6071 0.116525 17.3258 0 17.0325 0C16.7392 0 16.4578 0.116525 16.2504 0.323941C16.043 0.531358 15.9265 0.812675 15.9265 1.10601H18.1385ZM15.9265 5.08763C15.9265 5.38096 16.043 5.66227 16.2504 5.86969C16.4578 6.07711 16.7392 6.19363 17.0325 6.19363C17.3258 6.19363 17.6071 6.07711 17.8146 5.86969C18.022 5.66227 18.1385 5.38096 18.1385 5.08763H15.9265ZM6.19363 1.10601C6.19363 0.812675 6.07711 0.531358 5.86969 0.323941C5.66228 0.116525 5.38096 0 5.08763 0C4.7943 0 4.51298 0.116525 4.30557 0.323941C4.09815 0.531358 3.98162 0.812675 3.98162 1.10601H6.19363ZM3.98162 5.08763C3.98162 5.38096 4.09815 5.66227 4.30557 5.86969C4.51298 6.07711 4.7943 6.19363 5.08763 6.19363C5.38096 6.19363 5.66228 6.07711 5.86969 5.86969C6.07711 5.66227 6.19363 5.38096 6.19363 5.08763H3.98162ZM19.9081 7.52084V16.5901H22.1201V7.52084H19.9081ZM16.5901 19.9081H5.53003V22.1201H16.5901V19.9081ZM2.21202 16.5901V7.52084H4.57015e-06V16.5901H2.21202ZM5.53114 4.20282H16.5879V1.99081H5.53335V4.20282H5.53114ZM21.0141 7.96324H1.10601V10.1753H21.0141V7.96324ZM15.9265 1.10601V5.08763H18.1385V1.10601H15.9265ZM3.98162 1.10601V5.08763H6.19363V1.10601H3.98162ZM5.53003 19.9081C4.4561 19.9081 3.76153 19.9059 3.25055 19.8373C2.77055 19.7721 2.62013 19.6681 2.53608 19.584L0.972183 21.1479C1.53625 21.712 2.23082 21.9321 2.95525 22.0294C3.64982 22.1223 4.51804 22.1201 5.53003 22.1201V19.9081ZM4.57015e-06 16.5901C4.57015e-06 17.6021 -0.00220742 18.4714 0.090697 19.1649C0.188026 19.8893 0.408121 20.585 0.972183 21.1479L2.53608 19.584C2.45202 19.5 2.34805 19.3496 2.2828 18.8696C2.21423 18.3597 2.21202 17.664 2.21202 16.5901H4.57015e-06ZM19.9081 16.5901C19.9081 17.664 19.9059 18.3586 19.8373 18.8696C19.7721 19.3496 19.6681 19.5 19.584 19.584L21.1479 21.1479C21.712 20.5839 21.9321 19.8893 22.0294 19.1649C22.1223 18.4703 22.1201 17.6021 22.1201 16.5901H19.9081ZM16.5901 22.1201C17.6021 22.1201 18.4714 22.1223 19.1649 22.0294C19.8893 21.9321 20.585 21.712 21.1479 21.1479L19.584 19.584C19.5 19.6681 19.3496 19.7721 18.8696 19.8373C18.3586 19.9059 17.664 19.9081 16.5901 19.9081V22.1201ZM22.1201 7.52084C22.1201 6.50884 22.1223 5.63952 22.0294 4.94606C21.9321 4.22162 21.712 3.52595 21.1479 2.96299L19.584 4.52688C19.6681 4.61094 19.7721 4.76135 19.8373 5.24136C19.9059 5.75233 19.9081 6.44691 19.9081 7.52084H22.1201ZM16.589 4.20282C17.6629 4.20282 18.3586 4.20503 18.8696 4.2736C19.3496 4.33886 19.5 4.44282 19.584 4.52688L21.1479 2.96299C20.5839 2.39893 19.8893 2.17883 19.1638 2.0815C18.4703 1.9886 17.601 1.99081 16.5901 1.99081L16.589 4.20282ZM2.21202 7.52084C2.21202 6.44691 2.21423 5.75233 2.2828 5.24136C2.34805 4.76135 2.45202 4.61094 2.53608 4.52688L0.972183 2.96299C0.408121 3.52705 0.188026 4.22162 0.090697 4.94606C-0.00220742 5.64063 4.57015e-06 6.50884 4.57015e-06 7.52084H2.21202ZM5.53114 1.99081C4.51914 1.99081 3.64982 1.9886 2.95636 2.0815C2.23082 2.17883 1.53514 2.39893 0.972183 2.96299L2.53608 4.52688C2.62013 4.44282 2.77055 4.33886 3.25055 4.2736C3.76263 4.20503 4.4561 4.20282 5.53114 4.20282V1.99081Z" fill="#5F5F5F"/>
</g>
</svg>
