<svg width="70" height="56" viewBox="0 0 70 56" fill="none" xmlns="http://www.w3.org/2000/svg">
<path d="M16.7177 55.8866C18.9954 55.8866 20.8589 54.0373 20.8589 51.7769H12.5766C12.5766 54.0373 14.4194 55.8866 16.7177 55.8866ZM29.1412 43.5575V33.2832C29.1412 26.9748 25.7454 21.6938 19.8236 20.2965V18.8992C19.8236 17.1936 18.4363 15.8169 16.7177 15.8169C14.9991 15.8169 13.6118 17.1936 13.6118 18.8992V20.2965C7.66928 21.6938 4.29424 26.9542 4.29424 33.2832V43.5575L0.153076 47.6672V49.7221H33.2824V47.6672L29.1412 43.5575Z" fill="#5F5F5F"/>
<path d="M37.8625 11.5991C35.227 11.5991 33.0917 13.7182 33.0917 16.3337C33.0917 18.9491 35.227 21.0682 37.8625 21.0682C40.4979 21.0682 42.6332 18.9491 42.6332 16.3337C42.6332 13.7182 40.4979 11.5991 37.8625 11.5991Z" fill="#DB7338"/>
</svg>
