<svg width="42" height="42" viewBox="0 0 42 42" fill="none" xmlns="http://www.w3.org/2000/svg">
<path d="M36.5279 23.263C36.6145 22.6204 36.6579 21.9564 36.6579 21.2496C36.6579 20.5642 36.6145 19.8788 36.5062 19.2362L40.9032 15.852C41.2931 15.5522 41.4014 14.9739 41.1631 14.5455L37.0044 7.43444C36.7445 6.96323 36.203 6.81329 35.7265 6.96322L30.5497 9.01943C29.4667 8.20552 28.3188 7.52012 27.0408 7.00606L26.2611 1.56567C26.1744 1.05162 25.7412 0.6875 25.2214 0.6875H16.9039C16.3841 0.6875 15.9726 1.05162 15.8859 1.56567L15.1062 7.00606C13.8282 7.52012 12.6586 8.22694 11.5972 9.01943L6.4205 6.96322C5.94397 6.79187 5.40248 6.96323 5.14256 7.43444L1.0055 14.5455C0.745577 14.9953 0.832216 15.5522 1.26542 15.852L5.6624 19.2362C5.5541 19.8788 5.46746 20.5856 5.46746 21.2496C5.46746 21.9136 5.51078 22.6204 5.61908 23.263L1.2221 26.6472C0.832216 26.947 0.723917 27.5253 0.962177 27.9537L5.1209 35.0648C5.38082 35.536 5.92232 35.6859 6.39884 35.536L11.5756 33.4798C12.6586 34.2937 13.8066 34.9791 15.0845 35.4931L15.8643 40.9335C15.9726 41.4476 16.3841 41.8117 16.9039 41.8117H25.2214C25.7412 41.8117 26.1744 41.4476 26.2394 40.9335L27.0192 35.4931C28.2971 34.9791 29.4667 34.2937 30.5281 33.4798L35.7048 35.536C36.1813 35.7073 36.7228 35.536 36.9828 35.0648L41.1415 27.9537C41.4014 27.4825 41.2931 26.947 40.8815 26.6472L36.5279 23.263ZM21.0627 28.9604C16.774 28.9604 13.2651 25.4905 13.2651 21.2496C13.2651 17.0087 16.774 13.5388 21.0627 13.5388C25.3513 13.5388 28.8603 17.0087 28.8603 21.2496C28.8603 25.4905 25.3513 28.9604 21.0627 28.9604Z" fill="#5F5F5F"/>
</svg>
