<svg width="37" height="41" viewBox="0 0 37 41" fill="none" xmlns="http://www.w3.org/2000/svg">
<path d="M32.6454 22.3975C32.7247 21.76 32.7643 21.1012 32.7643 20.4C32.7643 19.72 32.7247 19.04 32.6256 18.4025L36.6474 15.045C37.004 14.7475 37.103 14.1737 36.8851 13.7487L33.0813 6.69375C32.8435 6.22625 32.3483 6.0775 31.9124 6.22625L27.1774 8.26625C26.1869 7.45875 25.1369 6.77875 23.968 6.26875L23.2548 0.87125C23.1755 0.36125 22.7793 0 22.3038 0H14.6962C14.2207 0 13.8443 0.36125 13.765 0.87125L13.0518 6.26875C11.883 6.77875 10.8131 7.48 9.84236 8.26625L5.10741 6.22625C4.67156 6.05625 4.17627 6.22625 3.93853 6.69375L0.154531 13.7487C-0.0832077 14.195 -0.00396185 14.7475 0.392269 15.045L4.41401 18.4025C4.31495 19.04 4.2357 19.7412 4.2357 20.4C4.2357 21.0587 4.27533 21.76 4.37438 22.3975L0.352646 25.755C-0.00396182 26.0525 -0.103019 26.6262 0.114908 27.0512L3.91872 34.1062C4.15646 34.5737 4.65175 34.7225 5.0876 34.5737L9.82255 32.5337C10.8131 33.3412 11.8631 34.0212 13.032 34.5312L13.7452 39.9287C13.8443 40.4387 14.2207 40.8 14.6962 40.8H22.3038C22.7793 40.8 23.1755 40.4387 23.235 39.9287L23.9482 34.5312C25.117 34.0212 26.1869 33.3412 27.1576 32.5337L31.8926 34.5737C32.3284 34.7437 32.8237 34.5737 33.0615 34.1062L36.8653 27.0512C37.103 26.5837 37.004 26.0525 36.6275 25.755L32.6454 22.3975ZM18.5 28.05C14.5773 28.05 11.3679 24.6075 11.3679 20.4C11.3679 16.1925 14.5773 12.75 18.5 12.75C22.4227 12.75 25.6321 16.1925 25.6321 20.4C25.6321 24.6075 22.4227 28.05 18.5 28.05Z" fill="#5F5F5F"/>
</svg>
