<svg width="36" height="25" viewBox="0 0 36 25" fill="none" xmlns="http://www.w3.org/2000/svg">
<path d="M34.5043 7.21226H30.3726L29.2243 4.60079C28.0442 1.91588 25.2279 0.181396 22.0486 0.181396H13.2843C10.1056 0.181396 7.28863 1.91588 6.10787 4.60079L4.95953 7.21226H0.828565C0.289593 7.21226 -0.105837 7.67303 0.0252829 8.14824L0.439346 9.65485C0.53113 9.99007 0.86238 10.2255 1.24263 10.2255H2.62767C1.70086 10.9618 1.10392 12.0322 1.10392 13.2387V16.2519C1.10392 17.2639 1.52902 18.1773 2.20808 18.8841V22.2784C2.20808 23.3876 3.197 24.2872 4.41642 24.2872H6.62475C7.84417 24.2872 8.83309 23.3876 8.83309 22.2784V20.2696H26.4998V22.2784C26.4998 23.3876 27.4887 24.2872 28.7081 24.2872H30.9164C32.1359 24.2872 33.1248 23.3876 33.1248 22.2784V18.8841C33.8038 18.1779 34.2289 17.2645 34.2289 16.2519V13.2387C34.2289 12.0322 33.632 10.9618 32.7059 10.2255H34.0909C34.4712 10.2255 34.8024 9.99007 34.8942 9.65485L35.3083 8.14824C35.4387 7.67303 35.0433 7.21226 34.5043 7.21226ZM10.2085 6.09297C10.7116 4.9492 11.9296 4.19903 13.2843 4.19903H22.0486C23.4033 4.19903 24.6213 4.9492 25.1244 6.09297L26.4998 9.22107H8.83309L10.2085 6.09297ZM6.62475 16.2394C5.29975 16.2394 4.41642 15.4384 4.41642 14.2368C4.41642 13.0353 5.29975 12.2343 6.62475 12.2343C7.94975 12.2343 9.93726 14.0366 9.93726 15.2381C9.93726 16.4396 7.94975 16.2394 6.62475 16.2394ZM28.7081 16.2394C27.3831 16.2394 25.3956 16.4396 25.3956 15.2381C25.3956 14.0366 27.3831 12.2343 28.7081 12.2343C30.0331 12.2343 30.9164 13.0353 30.9164 14.2368C30.9164 15.4384 30.0331 16.2394 28.7081 16.2394Z" fill="black"/>
</svg>
