<svg width="42" height="27" viewBox="0 0 42 27" fill="none" xmlns="http://www.w3.org/2000/svg">
<path d="M12.4353 13.1971C16.4444 13.1971 19.6892 10.2454 19.6892 6.59855C19.6892 2.95167 16.4444 0 12.4353 0C8.42622 0 5.18138 2.95167 5.18138 6.59855C5.18138 10.2454 8.42622 13.1971 12.4353 13.1971ZM17.4094 15.0824H16.8719C15.5247 15.6716 14.0286 16.0251 12.4353 16.0251C10.842 16.0251 9.35239 15.6716 7.99875 15.0824H7.46118C3.34199 15.0824 0 18.1225 0 21.8695V23.5663C0 25.1275 1.3925 26.3942 3.10883 26.3942H21.7618C23.4781 26.3942 24.8706 25.1275 24.8706 23.5663V21.8695C24.8706 18.1225 21.5286 15.0824 17.4094 15.0824ZM31.0883 13.1971C34.5209 13.1971 37.3059 10.6637 37.3059 7.54121C37.3059 4.41867 34.5209 1.8853 31.0883 1.8853C27.6556 1.8853 24.8706 4.41867 24.8706 7.54121C24.8706 10.6637 27.6556 13.1971 31.0883 13.1971ZM34.1971 15.0824H33.951C33.0507 15.3652 32.0986 15.5537 31.0883 15.5537C30.0779 15.5537 29.1258 15.3652 28.2256 15.0824H27.9794C26.6582 15.0824 25.4406 15.43 24.3719 15.9897C25.9522 17.5392 26.9432 19.5954 26.9432 21.8695V24.1319C26.9432 24.2615 26.9108 24.3852 26.9043 24.5089H38.3422C40.0585 24.5089 41.451 23.2422 41.451 21.681C41.451 18.0341 38.2062 15.0824 34.1971 15.0824Z" fill="#5F5F5F"/>
</svg>
