<svg width="35" height="25" viewBox="0 0 35 25" fill="none" xmlns="http://www.w3.org/2000/svg">
<path d="M10.4979 12.0065C13.8824 12.0065 16.6218 9.32111 16.6218 6.00324C16.6218 2.68538 13.8824 0 10.4979 0C7.11345 0 4.37415 2.68538 4.37415 6.00324C4.37415 9.32111 7.11345 12.0065 10.4979 12.0065ZM14.6971 13.7217H14.2433C13.106 14.2577 11.843 14.5793 10.4979 14.5793C9.1529 14.5793 7.89533 14.2577 6.75259 13.7217H6.29877C2.82132 13.7217 0 16.4875 0 19.8965V21.4402C0 22.8606 1.17555 24.013 2.62449 24.013H18.3714C19.8203 24.013 20.9959 22.8606 20.9959 21.4402V19.8965C20.9959 16.4875 18.1746 13.7217 14.6971 13.7217ZM26.2449 12.0065C29.1427 12.0065 31.4938 9.70167 31.4938 6.86085C31.4938 4.02003 29.1427 1.71521 26.2449 1.71521C23.347 1.71521 20.9959 4.02003 20.9959 6.86085C20.9959 9.70167 23.347 12.0065 26.2449 12.0065ZM28.8694 13.7217H28.6616C27.9016 13.979 27.0978 14.1505 26.2449 14.1505C25.3919 14.1505 24.5882 13.979 23.8282 13.7217H23.6204C22.505 13.7217 21.4771 14.0379 20.5749 14.5471C21.909 15.9568 22.7456 17.8275 22.7456 19.8965V21.9547C22.7456 22.0726 22.7182 22.1852 22.7128 22.2978H32.3687C33.8176 22.2978 34.9932 21.1454 34.9932 19.7249C34.9932 16.4071 32.2539 13.7217 28.8694 13.7217Z" fill="#5F5F5F"/>
</svg>
