<svg width="38" height="27" viewBox="0 0 38 27" fill="none" xmlns="http://www.w3.org/2000/svg">
<path d="M11.4 13.1971C15.0753 13.1971 18.05 10.2454 18.05 6.59855C18.05 2.95167 15.0753 0 11.4 0C7.72469 0 4.75 2.95167 4.75 6.59855C4.75 10.2454 7.72469 13.1971 11.4 13.1971ZM15.96 15.0824H15.4672C14.2322 15.6716 12.8606 16.0251 11.4 16.0251C9.93937 16.0251 8.57375 15.6716 7.33281 15.0824H6.84C3.06375 15.0824 0 18.1225 0 21.8695V23.5663C0 25.1275 1.27656 26.3942 2.85 26.3942H19.95C21.5234 26.3942 22.8 25.1275 22.8 23.5663V21.8695C22.8 18.1225 19.7362 15.0824 15.96 15.0824ZM28.5 13.1971C31.6469 13.1971 34.2 10.6637 34.2 7.54121C34.2 4.41867 31.6469 1.8853 28.5 1.8853C25.3531 1.8853 22.8 4.41867 22.8 7.54121C22.8 10.6637 25.3531 13.1971 28.5 13.1971ZM31.35 15.0824H31.1244C30.2991 15.3652 29.4263 15.5537 28.5 15.5537C27.5737 15.5537 26.7009 15.3652 25.8756 15.0824H25.65C24.4387 15.0824 23.3225 15.43 22.3428 15.9897C23.7916 17.5392 24.7 19.5954 24.7 21.8695V24.1319C24.7 24.2615 24.6703 24.3852 24.6644 24.5089H35.15C36.7234 24.5089 38 23.2422 38 21.681C38 18.0341 35.0253 15.0824 31.35 15.0824Z" fill="#5F5F5F"/>
</svg>
